# xmcd
#
# Track frame offsets: 
#        150
#        21682
#        34367
#        49450
#        63102
#        78747
#        93967
#        110955
#        122525
#        139765
#
# Disc length: 2047 seconds
#
# Revision: 0
# Processed by: cddbd v1.5.2PL0 Copyright (c) Steve Scherf et al.
# Submitted via: ExactAudioCopy v1.0b3
#
DISCID=9307fd0a
DTITLE=Susan Anton - Foxy
DYEAR=1981
DGENRE=Pop
TTITLE0=Foxy
TTITLE1=Dreaming My Dreams With You
TTITLE2=Hold Me Like You Never Had Me
TTITLE3=Love Won't Always Pass You By
TTITLE4=Fred Knoblock and Susan Anton - Killin' Time
TTITLE5=Sweet Talk
TTITLE6=Love Is No Friend To A Fool
TTITLE7=Mamma Never Told Me Bout You
TTITLE8=Love With No Strings
TTITLE9=Two Sides
EXTD=
EXTT0=
EXTT1=
EXTT2=
EXTT3=
EXTT4=
EXTT5=
EXTT6=
EXTT7=
EXTT8=
EXTT9=
PLAYORDER=
